<?xml version="1.0" encoding="UTF-8" standalone="no"?>
<svg
   xmlns:dc="http://purl.org/dc/elements/1.1/"
   xmlns:cc="http://creativecommons.org/ns#"
   xmlns:rdf="http://www.w3.org/1999/02/22-rdf-syntax-ns#"
   xmlns:svg="http://www.w3.org/2000/svg"
   xmlns="http://www.w3.org/2000/svg"
   viewBox="0 0 595.27557 841.88977"
   id="svg41"
   height="841.88977"
   width="595.27557"
   version="1.1">
  <metadata
     id="metadata47">
    <rdf:RDF>
      <cc:Work
         rdf:about="">
        <dc:format>image/svg+xml</dc:format>
        <dc:type
           rdf:resource="http://purl.org/dc/dcmitype/StillImage" />
      </cc:Work>
    </rdf:RDF>
  </metadata>
  <defs
     id="defs45" />
  <g
     id="Layer1000">
    <path
       id="path2"
       style="fill:#ffffff;fill-rule:evenodd"
       d="m 147.5593,334.8311 c 38.6308,-27.9548 71.371,-63.5065 96.0307,-104.3222 l 1.0652,-1.7628 2.0435,0.2579 c 16.8923,2.1323 33.9125,3.1955 50.9391,3.1955 17.0253,0 34.0443,-1.0632 50.9359,-3.1955 l 2.0436,-0.2579 1.0651,1.7635 c 24.6572,40.8238 57.3949,76.3838 96.0339,104.3392 l 1.4897,1.0779 -0.1971,1.8281 C 437.4293,445.3391 383.5697,543.5007 299.6338,611.5259 l -1.9947,1.6172 -1.9948,-1.6172 C 211.7033,543.4963 157.8424,445.3283 146.2667,337.7371 l -0.1971,-1.8282 z" />
    <g
       id="Layer1001">
      <g
         id="Layer1002">
        <path
           id="path4"
           style="fill:#161410;fill-rule:evenodd"
           d="M 297.6388,609.065 C 216.4795,543.2885 161.193,446.853 149.4168,337.3981 c 38.927,-28.1696 71.9564,-63.9891 96.8851,-105.2508 16.8142,2.1226 33.9468,3.2208 51.3358,3.2208 17.3879,0 34.5198,-1.0982 51.3329,-3.2204 24.9264,41.2699 57.9528,77.098 96.8884,105.2679 -11.7803,109.4475 -67.0649,205.8766 -148.2202,271.6494 z" />
        <path
           id="path6"
           style="fill:#0095d8;fill-rule:evenodd"
           d="M 297.6388,609.065 C 216.4795,543.2885 161.193,446.853 149.4168,337.3981 c 38.927,-28.1696 71.9564,-63.9891 96.8851,-105.2508 16.8142,2.1226 33.9468,3.2208 51.3358,3.2208 17.3879,0 34.5198,-1.0982 51.3329,-3.2204 24.9264,41.2699 57.9528,77.098 96.8884,105.2679 -11.7803,109.4475 -67.0649,205.8766 -148.2202,271.6494 z m 54.8917,-331.5205 c -0.8726,11.1395 -1.3218,22.3972 -1.3218,33.7608 0,11.3635 0.4492,22.6216 1.3215,33.7611 l -3.5395,3.5394 -21.7963,-21.7959 h -14.052 v 8.6177 c 29.6405,6.3569 52.667,30.5591 57.2744,60.8098 h 45.3618 c 4.5173,-16.4455 7.9639,-33.2575 10.277,-50.3453 -33.9808,-26.141 -63.3357,-57.9503 -86.6608,-93.9189 -13.8749,1.3565 -27.8143,2.0334 -41.7571,2.0334 -13.9446,0 -27.8851,-0.6773 -41.7619,-2.0342 -23.3266,35.9605 -52.6823,67.7623 -86.6559,93.9014 2.313,17.0942 5.7608,33.9125 10.2795,50.3636 h 45.3592 c 4.6075,-30.2511 27.6343,-54.4533 57.2744,-60.8098 v -8.6177 h -14.0519 l -21.7963,21.7967 -3.5395,-3.5395 c 0.8726,-11.1399 1.3215,-22.3983 1.3215,-33.7618 0,-11.3636 -0.4496,-22.6217 -1.3219,-33.7615 l 3.5399,-3.5399 21.7963,21.7967 h 14.0519 v -14.052 l -21.7963,-21.7966 3.5391,-3.5391 c 11.1399,0.8726 22.3984,1.3214 33.7619,1.3214 11.3636,0 22.6213,-0.4492 33.7612,-1.3214 l 3.5398,3.5398 -21.7963,21.7959 v 14.052 h 14.052 l 21.7963,-21.7959 z m 18.671,132.6718 c -1.3889,37.0165 -30.1165,67.0473 -66.5743,70.4835 v 97.6985 c 49.9323,-45.9974 86.7535,-104.0001 107.0245,-168.182 z m -80.5532,70.4835 C 254.1905,477.264 225.4629,447.2332 224.0739,410.2163 H 183.626 c 20.2706,64.1811 57.091,122.1824 107.0223,168.1797 z M 252.0724,244.085 c -24.008,38.0301 -54.8406,71.4546 -90.8011,98.4663 12.1937,98.2971 61.0226,188.0011 136.3675,251.9839 75.3405,-63.9784 124.1675,-153.6756 136.3657,-251.9656 -35.9679,-27.0133 -66.7991,-60.446 -90.8056,-98.4843 -15.1281,1.6451 -30.3424,2.4659 -45.5612,2.4659 -15.2202,0 -30.4356,-0.8208 -45.5653,-2.4662 z m -1.9146,-3.9645 C 225.839,279.194 194.2712,313.4312 157.3106,340.8563 169.2933,441.9712 219.6581,534.2339 297.6388,599.4095 375.6151,534.238 425.978,441.982 437.9652,340.8742 400.9968,313.4483 369.4309,279.203 345.1139,240.1209 c -15.7578,1.8031 -31.6144,2.7026 -47.4762,2.7026 -15.8629,0 -31.7206,-0.8995 -47.4799,-2.703 z" />
        <path
           id="path8"
           style="fill:#ffffff;fill-rule:evenodd"
           d="m 313.1424,335.4321 c 33.2098,7.1229 58.1176,36.6445 58.1176,71.9776 0,40.6537 -32.969,73.6227 -73.6227,73.6227 -40.6529,0 -73.6219,-32.969 -73.6219,-73.6227 0,-35.3335 24.9082,-64.8551 58.1176,-71.9776 v -8.6222 h -14.0519 l -21.7963,21.7967 -3.5395,-3.5395 c 0.8726,-11.1399 1.3215,-22.3983 1.3215,-33.7618 0,-11.3636 -0.4496,-22.6217 -1.3219,-33.7615 l 3.5399,-3.5399 21.7963,21.7967 h 14.0519 v -14.052 l -21.7963,-21.7966 3.5391,-3.5391 c 11.1399,0.8726 22.3984,1.3214 33.7619,1.3214 11.3636,0 22.6213,-0.4492 33.7612,-1.3214 l 3.5398,3.5398 -21.7963,21.7959 v 14.052 h 14.052 l 21.7963,-21.7959 3.5398,3.5398 c -0.8726,11.1395 -1.3218,22.3972 -1.3218,33.7608 0,11.3635 0.4492,22.6216 1.3215,33.7611 l -3.5395,3.5394 -21.7963,-21.7959 h -14.052 z m 55.8426,33.3541 h 17.8006 v -7.7641 h -4.5922 v -24.4284 h -6.3438 l -6.8646,2.9825 v 8.2375 l 5.0183,-2.1777 v 15.3861 h -5.0183 z m 30.4763,-32.8553 c -1.081,0 -2.13,0.0913 -3.1324,0.2602 -1.0091,0.17 -2.0044,0.4343 -2.9825,0.7891 -0.9786,0.3549 -1.9727,0.8127 -2.9747,1.3651 v 8.1902 c 1.4676,-0.9234 2.849,-1.6007 4.1504,-2.0436 1.2943,-0.4406 2.5013,-0.6598 3.6136,-0.6549 0.5599,0.003 1.0635,0.0995 1.5071,0.2919 0.4474,0.1938 0.8097,0.4622 1.0733,0.8204 0.2646,0.3594 0.4022,0.797 0.4022,1.3021 0,0.6863 -0.2036,1.3424 -0.5998,1.9645 -0.3925,0.6162 -0.9312,1.2391 -1.6096,1.8624 -0.6785,0.6229 -1.4565,1.298 -2.3355,1.9962 -0.8092,0.6426 -1.6394,1.3278 -2.4696,2.0592 -0.8264,0.728 -1.5906,1.5514 -2.288,2.4699 -0.6986,0.9197 -1.263,1.9884 -1.6887,3.2033 -0.4261,1.2148 -0.6549,2.6358 -0.6549,4.2451 v 4.7342 h 20.215 v -7.7641 h -10.7467 c 0.0239,-0.4261 0.2353,-0.8697 0.6393,-1.3412 0.4004,-0.4671 0.923,-0.9715 1.578,-1.5071 0.6467,-0.529 1.3539,-1.1094 2.1225,-1.7282 0.7694,-0.6196 1.5292,-1.2883 2.2881,-2.004 0.7635,-0.7199 1.4549,-1.4896 2.0674,-2.3198 0.6102,-0.8264 1.0933,-1.7531 1.4516,-2.7775 0.3593,-1.0266 0.5524,-2.2012 0.5524,-3.519 0,-1.6569 -0.2904,-3.1096 -0.8365,-4.3398 -0.5502,-1.239 -1.2957,-2.2705 -2.2485,-3.0928 -0.9484,-0.8183 -2.0275,-1.4374 -3.2431,-1.8464 -1.222,-0.4115 -2.501,-0.6154 -3.8504,-0.6154 z m -202.6507,0 c -1.0811,0 -2.1304,0.0868 -3.1324,0.2602 -1.0099,0.1659 -2.0041,0.4343 -2.9826,0.7891 -0.9785,0.3553 -1.9727,0.8127 -2.9747,1.3651 v 8.1902 c 1.4676,-0.9234 2.8483,-1.6018 4.1504,-2.0436 1.2939,-0.4421 2.5013,-0.6627 3.6137,-0.6549 0.5603,0 1.0654,0.0947 1.5071,0.2919 0.4496,0.1893 0.8048,0.4656 1.0732,0.8204 0.2602,0.3631 0.3944,0.797 0.4022,1.3021 -0.008,0.6863 -0.205,1.3412 -0.5998,1.9645 -0.3944,0.6155 -0.9308,1.2391 -1.6096,1.8624 -0.6784,0.6233 -1.4594,1.2939 -2.3354,1.9962 -0.8126,0.6389 -1.6413,1.3255 -2.4696,2.0592 -0.8287,0.7261 -1.5862,1.5544 -2.2881,2.4699 -0.6945,0.923 -1.2626,1.9884 -1.6886,3.2033 -0.4261,1.2152 -0.6393,2.6355 -0.655,4.2451 v 4.7342 h 20.215 v -7.7641 h -10.7466 c 0.0238,-0.4261 0.2367,-0.8678 0.6393,-1.3412 0.4022,-0.4656 0.923,-0.9707 1.5779,-1.5071 0.6472,-0.5286 1.3573,-1.1049 2.1226,-1.7282 0.7731,-0.6155 1.5306,-1.2861 2.2881,-2.004 0.7653,-0.718 1.4519,-1.4915 2.0674,-2.3198 0.6076,-0.8287 1.0966,-1.7516 1.4515,-2.7775 0.3631,-1.0255 0.5446,-2.2012 0.5525,-3.519 -0.008,-1.6569 -0.2919,-3.1089 -0.8365,-4.3398 -0.5521,-1.2387 -1.2939,-2.2724 -2.2486,-3.0928 -0.9468,-0.8205 -2.0279,-1.436 -3.2431,-1.8464 -1.2227,-0.4104 -2.5009,-0.6154 -3.8503,-0.6154 z m 25.5646,33.5181 c 2.7775,-0.008 5.0734,-0.6707 6.8963,-1.9884 1.8225,-1.3177 3.1797,-3.2193 4.0714,-5.7127 0.8995,-2.4931 1.3412,-5.5152 1.3412,-9.058 0,-3.5428 -0.4417,-6.5649 -1.3412,-9.0579 -0.8917,-2.4935 -2.2489,-4.395 -4.0714,-5.7128 -1.8229,-1.3177 -4.1188,-1.9805 -6.8963,-1.9883 -2.7615,0.008 -5.0499,0.6706 -6.8724,1.9883 -1.8229,1.3178 -3.1876,3.2193 -4.0871,5.7128 -0.8995,2.493 -1.3494,5.5151 -1.3494,9.0579 0,3.5428 0.4499,6.5649 1.3494,9.058 0.8995,2.4934 2.2642,4.395 4.0871,5.7127 1.8225,1.3177 4.1109,1.9805 6.8724,1.9884 z m 0,-8.0955 c -0.9073,0 -1.6491,-0.3236 -2.2012,-0.9625 -0.5603,-0.6393 -0.9629,-1.6018 -1.2152,-2.8879 -0.2524,-1.2864 -0.3788,-2.8878 -0.371,-4.8132 -0.008,-1.9253 0.1186,-3.5271 0.371,-4.8132 0.2523,-1.2861 0.6549,-2.2486 1.2152,-2.8879 0.5521,-0.6389 1.2939,-0.9625 2.2012,-0.9625 0.9312,0 1.6726,0.3236 2.2329,0.9625 0.5681,0.6393 0.9785,1.6018 1.2309,2.8879 0.2527,1.2861 0.3787,2.8879 0.3709,4.8132 0.008,1.9254 -0.1182,3.5268 -0.3709,4.8132 -0.2524,1.2861 -0.6628,2.2486 -1.2309,2.8879 -0.5603,0.6389 -1.3017,0.9625 -2.2329,0.9625 z m 70.8541,-85.3388 h 8.8172 v 30.8818 h 30.8815 v 8.8171 h -30.8815 v 30.8823 h -8.8172 v -30.8823 h -30.8822 v -8.8171 h 30.8822 z m 7.2042,117.3963 v 50.6119 c 6.8862,0.0734 13.7079,0.4168 20.4625,0.9938 9.4833,-14.7859 14.9881,-32.3666 14.9881,-51.2329 0,-5.3302 -0.4429,-10.5572 -1.2883,-15.6478 -8.8347,8.8645 -20.8361,14.5713 -34.1623,15.275 z m -5.5916,50.6119 V 393.411 c -13.3258,-0.7041 -25.3272,-6.4109 -34.1618,-15.2757 -0.8455,5.0909 -1.2887,10.3183 -1.2887,15.6485 0,18.8663 5.5051,36.447 14.9884,51.2329 6.755,-0.577 13.5756,-0.9204 20.4621,-0.9938 z m 22.6668,6.3319 c -6.5604,-0.4921 -13.1846,-0.7552 -19.871,-0.7552 -6.686,0 -13.3109,0.2631 -19.8713,0.7552 -2.2381,1.8598 -4.4106,3.838 -6.509,5.9364 -2.5959,2.596 -5.0093,5.3045 -7.2414,8.1104 9.8538,5.8271 21.3467,9.1753 33.6213,9.1753 12.275,0 23.7676,-3.3482 33.6218,-9.1753 -2.2322,-2.8059 -4.6455,-5.5148 -7.2411,-8.1104 -2.0983,-2.0984 -4.2712,-4.0766 -6.5093,-5.9364 z m 18.4626,10.9885 c -2.4558,-3.1204 -5.1223,-6.1287 -7.9993,-9.0057 -1.0438,-1.0438 -2.1051,-2.06 -3.1827,-3.0482 5.9714,-9.0132 10.5311,-19.0419 13.3627,-29.7728 6.6897,-7.1349 15.5986,-12.1643 25.6247,-13.9838 0.0175,0.6237 0.0279,1.2492 0.0279,1.8769 0,22.25 -10.9885,41.9379 -27.8333,53.9336 z m -76.6671,0 c 2.4554,-3.1201 5.1222,-6.1287 7.9993,-9.0057 1.0437,-1.0438 2.105,-2.06 3.1827,-3.0482 -5.9718,-9.0136 -10.5312,-19.043 -13.3628,-29.7739 -6.6897,-7.1349 -15.5986,-12.1632 -25.6246,-13.9827 -0.0179,0.6233 -0.028,1.2492 -0.028,1.8769 0,22.25 10.9886,41.9382 27.8334,53.9336 z m 19.8198,-117.472 c -9.4057,2.738 -17.9478,7.508 -25.1165,13.8033 6.6312,17.6518 23.6638,30.2191 43.6302,30.2191 19.9664,0 36.9994,-12.5669 43.6307,-30.2183 -7.1692,-6.295 -15.7101,-11.0654 -25.1159,-13.8038 l 18.7862,18.7862 -3.5398,3.5398 c -11.1399,-0.8722 -22.3976,-1.3214 -33.7612,-1.3214 -11.3635,0 -22.622,0.4488 -33.7619,1.3214 l -3.5391,-3.539 z m 69.5103,-64.2385 -19.8959,19.8955 h -19.3237 v -19.3237 l 19.8955,-19.8959 c -10.539,0.7675 -21.1052,1.1533 -31.6725,1.1533 -10.5673,0 -21.1335,-0.3858 -31.6725,-1.1533 l 19.8956,19.8959 v 19.3237 H 266.537 l -19.8959,-19.8955 c 0.7676,10.539 1.1534,21.1051 1.1534,31.6725 0,10.5673 -0.3858,21.1335 -1.1534,31.6724 l 19.8959,-19.8955 h 19.3238 v 19.3237 l -19.8956,19.8959 c 10.539,-0.7675 21.1052,-1.1533 31.6725,-1.1533 10.5673,0 21.1335,0.3858 31.6725,1.1533 l -19.8955,-19.8959 v -19.3237 h 19.3237 l 19.8959,19.8955 c -0.7675,-10.5389 -1.1533,-21.1051 -1.1533,-31.6724 0,-10.5674 0.3858,-21.1335 1.1533,-31.6725 z m -93.5085,130.5168 c -6.6477,-5.167 -14.5773,-8.7613 -23.2308,-10.2255 1.654,-14.6793 8.1108,-27.9071 17.7633,-38.0707 1.676,3.904 3.8153,7.5628 6.3472,10.9076 -1.443,6.7807 -2.2057,13.8123 -2.2057,21.0228 0,5.5729 0.4541,11.0396 1.326,16.3658 z m 108.2546,-10.2255 c -8.6535,1.4642 -16.5831,5.0589 -23.2307,10.2259 0.8719,-5.3266 1.3259,-10.7933 1.3259,-16.3662 0,-7.2101 -0.7627,-14.2413 -2.2057,-21.022 2.5319,-3.3449 4.6712,-7.004 6.3476,-10.9081 9.6529,10.164 16.1089,23.3914 17.7629,38.0704 z" />
      </g>
      <g
         id="Layer1003">
        <path
           id="path11"
           style="fill:#ffffff;fill-rule:evenodd"
           d="m 196.7188,424.6112 c 0,-1.8012 0.2677,-3.3105 0.8064,-4.5317 0.4029,-0.8966 0.9498,-1.707 1.645,-2.4223 0.6948,-0.7116 1.4557,-1.2421 2.2825,-1.5876 1.1019,-0.4686 2.3686,-0.699 3.8082,-0.699 2.6031,0 4.6839,0.8059 6.2469,2.4223 1.5627,1.6118 2.344,3.8574 2.344,6.7322 0,2.854 -0.7772,5.0831 -2.3276,6.695 -1.5504,1.6081 -3.6233,2.4141 -6.2141,2.4141 -2.628,0 -4.717,-0.8019 -6.2674,-2.4018 -1.5504,-1.6037 -2.3239,-3.812 -2.3239,-6.6212 z m 3.6726,-0.1193 c 0,1.9988 0.4648,3.5164 1.386,4.5486 0.9252,1.0322 2.0975,1.5463 3.5204,1.5463 1.4188,0 2.5867,-0.51 3.4996,-1.5381 0.9092,-1.024 1.3654,-2.558 1.3654,-4.606 0,-2.0234 -0.4439,-3.5327 -1.3281,-4.5321 -0.8884,-0.9949 -2.0689,-1.4926 -3.5369,-1.4926 -1.4724,0 -2.6567,0.5059 -3.5573,1.5135 -0.8966,1.0076 -1.3491,2.5247 -1.3491,4.5604 z" />
        <path
           id="path13"
           style="fill:#ffffff;fill-rule:evenodd"
           d="m 209.3688,454.9488 v -17.6634 h 5.7206 c 2.1673,0 3.5819,0.0906 4.2399,0.2673 1.0117,0.2632 1.8631,0.8391 2.5456,1.7274 0.683,0.8884 1.0244,2.0357 1.0244,3.4381 0,1.0855 -0.1975,1.9988 -0.5923,2.7347 -0.3948,0.7403 -0.8924,1.3203 -1.5012,1.7438 -0.6046,0.4193 -1.2215,0.6993 -1.8463,0.835 -0.8514,0.1685 -2.0853,0.255 -3.7016,0.255 h -2.3235 v 6.6621 z m 3.5656,-14.6734 v 5.009 h 1.9492 c 1.4069,0 2.3485,-0.0906 2.8215,-0.2755 0.4727,-0.1853 0.8429,-0.4731 1.1142,-0.8678 0.2677,-0.3948 0.4034,-0.8514 0.4034,-1.3737 0,-0.6415 -0.1894,-1.172 -0.5678,-1.5913 -0.3742,-0.4157 -0.8555,-0.6789 -1.431,-0.7814 -0.4276,-0.0824 -1.2831,-0.1193 -2.5662,-0.1193 z" />
        <path
           id="path15"
           style="fill:#ffffff;fill-rule:evenodd"
           d="m 221.2703,476.5636 v -14.6734 h -5.2393 v -2.99 h 14.0363 v 2.99 H 224.84 v 14.6734 z" />
        <path
           id="path17"
           style="fill:#ffffff;fill-rule:evenodd"
           d="m 230.4826,493.7051 v -17.6634 h 3.5656 v 17.6634 z" />
        <path
           id="path19"
           style="fill:#ffffff;fill-rule:evenodd"
           d="m 239.8433,510.4738 v -17.6634 h 5.338 l 3.2036,12.0499 3.1667,-12.0499 h 5.3504 v 17.6634 h -3.3106 v -13.9043 l -3.5081,13.9043 h -3.434 l -3.4955,-13.9043 v 13.9043 z" />
        <path
           id="path21"
           style="fill:#ffffff;fill-rule:evenodd"
           d="m 255.7554,514.798 h 3.5655 v 9.5656 c 0,1.5176 0.0451,2.5047 0.1316,2.9531 0.1521,0.7236 0.5182,1.3036 1.09,1.7394 0.5756,0.4402 1.361,0.6579 2.3563,0.6579 1.0117,0 1.7766,-0.2054 2.2907,-0.6207 0.514,-0.4115 0.8227,-0.9214 0.9252,-1.5216 0.107,-0.6046 0.1566,-1.604 0.1566,-3.0023 v -9.7714 h 3.5655 v 9.2779 c 0,2.1221 -0.0947,3.6192 -0.2881,4.4948 -0.1931,0.876 -0.5469,1.6123 -1.065,2.2169 -0.5182,0.6005 -1.2134,1.0814 -2.0768,1.4393 -0.8678,0.3578 -2.0029,0.5345 -3.4011,0.5345 -1.6861,0 -2.965,-0.1931 -3.837,-0.5837 -0.8719,-0.3907 -1.5585,-0.8966 -2.0644,-1.5176 -0.5058,-0.621 -0.8391,-1.2749 -0.9994,-1.9578 -0.2344,-1.0117 -0.3496,-2.5043 -0.3496,-4.4826 z" />
        <path
           id="path23"
           style="fill:#ffffff;fill-rule:evenodd"
           d="m 268.8639,554.0761 v -17.6634 h 5.3381 l 3.2036,12.0498 3.1667,-12.0498 h 5.3503 v 17.6634 h -3.3105 v -13.9044 l -3.5082,13.9044 h -3.434 l -3.4954,-13.9044 v 13.9044 z" />
      </g>
      <g
         id="Layer1004">
        <path
           id="path26"
           style="fill:#ffffff;fill-rule:evenodd"
           d="m 382.4413,433.3341 v -17.5195 h 3.5656 v 14.5422 h 8.8667 v 2.9773 z" />
        <path
           id="path28"
           style="fill:#ffffff;fill-rule:evenodd"
           d="m 386.4907,457.4546 h -3.882 l -1.5422,-4.014 h -7.0614 l -1.4556,4.014 h -3.7837 l 6.8803,-17.6634 h 3.7713 z m -6.5675,-6.9872 -2.4345,-6.5552 -2.3854,6.5552 z" />
        <path
           id="path30"
           style="fill:#ffffff;fill-rule:evenodd"
           d="m 358.7196,479.1849 3.4709,-0.3415 c 0.2058,1.1679 0.6293,2.0234 1.2708,2.5703 0.6374,0.5431 1.497,0.8186 2.5829,0.8186 1.1474,0 2.0149,-0.2427 2.5949,-0.7321 0.5841,-0.4854 0.876,-1.0527 0.876,-1.7025 0,-0.4197 -0.1234,-0.7731 -0.3702,-1.0653 -0.2426,-0.296 -0.6702,-0.551 -1.283,-0.765 -0.4153,-0.148 -1.3696,-0.4029 -2.8543,-0.7731 -1.9124,-0.473 -3.2529,-1.0568 -4.0219,-1.7479 -1.0859,-0.9703 -1.6286,-2.155 -1.6286,-3.5529 0,-0.901 0.255,-1.7397 0.7649,-2.5251 0.51,-0.7814 1.2462,-1.3778 2.2042,-1.789 0.9625,-0.4074 2.1181,-0.6128 3.4754,-0.6128 2.2206,0 3.8861,0.4853 5.0089,1.4557 1.1187,0.9748 1.7065,2.2701 1.7643,3.8947 l -3.5655,0.1562 c -0.1521,-0.9089 -0.4813,-1.5627 -0.983,-1.9575 -0.5018,-0.3988 -1.2544,-0.5964 -2.2579,-0.5964 -1.0363,0 -1.8505,0.2099 -2.4346,0.6374 -0.3784,0.2714 -0.5673,0.6375 -0.5673,1.0941 0,0.4194 0.1766,0.7773 0.5304,1.0732 0.4484,0.3784 1.5422,0.7732 3.2778,1.1802 1.7352,0.4116 3.0187,0.835 3.8492,1.2708 0.8309,0.4403 1.4807,1.0363 1.9533,1.7971 0.469,0.7609 0.7035,1.6988 0.7035,2.8133 0,1.0117 -0.2796,1.9616 -0.8432,2.8417 -0.5633,0.8842 -1.3569,1.5421 -2.385,1.9697 -1.0285,0.432 -2.3116,0.6456 -3.8455,0.6456 -2.2329,0 -3.9481,-0.514 -5.1447,-1.5462 -1.1969,-1.0322 -1.9123,-2.5375 -2.1427,-4.5113 z" />
        <path
           id="path32"
           style="fill:#ffffff;fill-rule:evenodd"
           d="M 348.7074,509.4233 V 494.75 h -5.2393 v -2.99 h 14.0363 v 2.99 h -5.2274 v 14.6733 z" />
        <path
           id="path34"
           style="fill:#ffffff;fill-rule:evenodd"
           d="m 326.5342,514.0166 h 3.5656 v 9.5657 c 0,1.5176 0.0451,2.5047 0.1315,2.9531 0.1521,0.7235 0.5182,1.3036 1.09,1.7393 0.5756,0.4403 1.361,0.658 2.3563,0.658 1.0117,0 1.7766,-0.2054 2.2907,-0.6207 0.514,-0.4115 0.8227,-0.9215 0.9252,-1.5216 0.107,-0.6047 0.1566,-1.6041 0.1566,-3.0023 v -9.7715 h 3.5655 v 9.2779 c 0,2.1222 -0.0946,3.6193 -0.2881,4.4949 -0.1931,0.876 -0.5469,1.6122 -1.065,2.2169 -0.5182,0.6005 -1.2134,1.0814 -2.0767,1.4392 -0.8678,0.3579 -2.0029,0.5346 -3.4012,0.5346 -1.686,0 -2.965,-0.1931 -3.8369,-0.5838 -0.8719,-0.3906 -1.5586,-0.8965 -2.0644,-1.5175 -0.5059,-0.6211 -0.8391,-1.2749 -0.9994,-1.9578 -0.2345,-1.0117 -0.3497,-2.5043 -0.3497,-4.4826 z" />
        <path
           id="path36"
           style="fill:#ffffff;fill-rule:evenodd"
           d="m 310.5397,554.0761 v -17.6634 h 12.1117 v 2.99 h -8.542 v 4.178 h 7.3738 v 2.99 h -7.3738 v 7.5054 z" />
      </g>
    </g>
  </g>
</svg>
